<?xml version="1.0" encoding="utf-8"?>
<!-- Generator: Adobe Illustrator 23.0.6, SVG Export Plug-In . SVG Version: 6.00 Build 0)  -->
<svg version="1.1" id="Capa_1" xmlns="http://www.w3.org/2000/svg" xmlns:xlink="http://www.w3.org/1999/xlink" x="0px" y="0px"
	 viewBox="0 0 297.1 297.1" style="enable-background:new 0 0 297.1 297.1;" xml:space="preserve">
<style type="text/css">
	.st0{fill:#FFFFFF;}
</style>
<g>
	<path class="st0" d="M201,244.4H198c2-3,7.5-13.1-0.6-23c-8-9.8-22.6-35.6-22-58h3.2c4,0,6.9-3.2,6.9-7.2v-0.9c0-4-2.9-7.2-6.9-7.2
		h-3.9v-3.9c11.7-8.1,18.5-21.2,18.5-35.9c0-9.3-6.3-23.5-14.2-37.5l-16.7,16.7c-2.8,2.8-7.4,2.8-10.2,0l-0.8-0.8
		c-2.8-2.8-2.8-7.4,0-10.2L170.7,57c-4-6.4-8-12.3-11.4-17.3c2.6-2.6,4.2-6.2,4.2-10.2c0-8.1-6.5-14.6-14.6-14.6
		c-8.1,0-14.6,6.5-14.6,14.6c0,4,1.6,7.6,4.2,10.2c-13.1,19-34.1,51.8-34.1,68.6c0,15.2,7.4,28.6,19.1,36.6v3.2h-4.2
		c-4,0-7.5,3.2-7.5,7.2v0.9c0,4,3.5,7.2,7.5,7.2h3.2c0.6,22.4-14,48.1-22,58c-8.1,10-2.6,20-0.6,23h-3.1c-4,0-7.5,3.2-7.5,7.2v8.1
		c0,3.7,2.7,6.7,6.3,7.1v15.4h106.2v-15.4c3.6-0.4,6.3-3.5,6.3-7.1v-8.1C207.9,247.6,205,244.4,201,244.4z"/>
</g>
</svg>
