<?xml version="1.0" encoding="utf-8"?>
<!-- Generator: Adobe Illustrator 23.0.6, SVG Export Plug-In . SVG Version: 6.00 Build 0)  -->
<svg version="1.1" id="Capa_1" xmlns="http://www.w3.org/2000/svg" xmlns:xlink="http://www.w3.org/1999/xlink" x="0px" y="0px"
	 viewBox="0 0 298 298" style="enable-background:new 0 0 298 298;" xml:space="preserve">
<g>
	<path d="M192.5,245.3H191c1.7-3,6.4-13.1-0.5-23c-6.8-9.8-19.3-35.6-18.8-58c4,0,7-3.2,7-7.2v-0.9c0-4-3.2-7.2-7.2-7.2
		c4,0,7.2-3.2,7.2-7.2v-0.9c0-4-2.9-7.2-6.9-7.2h-3.2c-0.9-14.5,1.2-26.9,4.3-36.7c1-3.1,2.2-5.6,3.4-7.4h1.8c4,0,6.9-3.2,6.9-7.2
		v-0.9c0-3.9-3.1-7.1-7-7.2c-1.9-11.9-11-21.4-22.7-24V39.2h10.8V25.7h-10.8V14.9h-13.5v10.8H131v13.5h10.8v11.3
		c-10.8,2.8-19.6,12.2-21.5,23.8h-0.7c-4,0-7.5,3.2-7.5,7.2v0.9c0,4,3.5,7.2,7.5,7.2h2.7c1.2,1.9,2.4,4.3,3.4,7.4
		c3.1,9.8,5.2,22.1,4.3,36.7h-4.1c-4,0-7.5,3.2-7.5,7.2v0.9c0,4,3.2,7.2,7.2,7.2c-4,0-7.2,3.2-7.2,7.2v0.9c0,4,3.5,7.2,7.5,7.2h0.9
		c0.5,22.4-11.9,48.1-18.7,58c-6.9,10-2.2,20-0.5,23h-1.5c-4,0-7.5,3.2-7.5,7.2v8.1c0,3.4,2.7,6.2,5.4,7v15.5h90v-15.5
		c3.6-0.8,5.4-3.6,5.4-7v-8.1C199.4,248.5,196.5,245.3,192.5,245.3z"/>
</g>
</svg>
