<?xml version="1.0" encoding="utf-8"?>
<!-- Generator: Adobe Illustrator 23.0.6, SVG Export Plug-In . SVG Version: 6.00 Build 0)  -->
<svg version="1.1" id="Capa_1" xmlns="http://www.w3.org/2000/svg" xmlns:xlink="http://www.w3.org/1999/xlink" x="0px" y="0px"
	 viewBox="0 0 298 298" style="enable-background:new 0 0 298 298;" xml:space="preserve">
<g>
	<path d="M204.8,119.3c13.4,0,24.3-10.9,24.3-24.3s-9.9-22.5-24.3-27.6c-10.2-3.6-16.2-9.7-20.7-17.5s-14.4-19.7-27.4-19.7
		c-5.2,0-17.8,0-17.8,0V14.9c-96.3,36-65.1,165.6-65.1,165.6H93v12.6h-5.7c-4,0-7.8,3.2-7.8,7.2v0.9c0,3,2.1,5.5,4.6,6.6
		c-7.9,13.5-1.3,26.8,0.7,30.3H80c-4,0-7.8,3.2-7.8,7.2v16.2c0,4,3.6,7.2,7.2,7.2v14.4h118.8v-14.5c3.6-0.4,6.3-3.5,6.3-7.1v-16.2
		c0-4-2.7-7.2-6.6-7.2h-3.8c2-3.5,8-16.7,0.1-30.3c2.6-1.1,4.1-3.6,4.1-6.6v-0.9c0-4-2.7-7.2-6.6-7.2h-6.9v-12.6h21.7
		c-14.9-48.6-59.7-74.7-59.7-74.7h36.2C186.9,113.8,195.2,119.3,204.8,119.3z"/>
</g>
</svg>
