<?xml version="1.0" encoding="utf-8"?>
<!-- Generator: Adobe Illustrator 23.0.6, SVG Export Plug-In . SVG Version: 6.00 Build 0)  -->
<svg version="1.1" id="Capa_1" xmlns="http://www.w3.org/2000/svg" xmlns:xlink="http://www.w3.org/1999/xlink" x="0px" y="0px"
	 viewBox="0 0 297 297" style="enable-background:new 0 0 297 297;" xml:space="preserve">
<style type="text/css">
	.st0{fill:#FFFFFF;}
</style>
<g>
	<path class="st0" d="M211.3,231.2h-5c2.2-3.2,9.1-15.1-0.6-27.1c-11.2-13.9-33.5-55.3-22.9-83h0.8c3.7,0,6.5-3,6.5-6.8v-0.8
		c0-3.7-2.7-6.8-6.5-6.8h-1c9.2-8.8,14.8-21.2,14.8-34.8c0-26.6-21.6-48.3-48.3-48.3S100.8,45.3,100.8,72c0,13.7,5.8,26.1,14.8,34.8
		h-1.9c-3.7,0-7,3-7,6.8v0.8c0,3.7,3.3,6.8,7,6.8h1.6c10.5,27.7-11.8,69.1-23,83c-9.7,12-2.8,23.8-0.6,27.1h-5.8c-3.7,0-7,3-7,6.8
		v15.1c0,3.7,3.3,6.8,7,6.8h0.5v13.4H211v-13.4c4.2,0,6.8-3,6.8-6.8V238C217.8,234.3,215.1,231.2,211.3,231.2z"/>
</g>
</svg>
