<?xml version="1.0" encoding="utf-8"?>
<!-- Generator: Adobe Illustrator 23.0.6, SVG Export Plug-In . SVG Version: 6.00 Build 0)  -->
<svg version="1.1" id="Capa_1" xmlns="http://www.w3.org/2000/svg" xmlns:xlink="http://www.w3.org/1999/xlink" x="0px" y="0px"
	 viewBox="0 0 297.8 297.8" style="enable-background:new 0 0 297.8 297.8;" xml:space="preserve">
<g>
	<path d="M201.4,245.1h-3c2-3,7.5-13.1-0.6-23c-8-9.8-22.6-35.6-22-58h3.2c4,0,6.9-3.2,6.9-7.2V156c0-4-3.2-7.2-7.2-7.2
		c4,0,7.2-3.2,7.2-7.2v-0.9c0-4-2.9-7.2-6.9-7.2h-4.2c-1.9-19.6,1-38.7,5.4-49.2c1.7-4,3.7-7,5.7-9.3h1.2c4,0,6.9-3.2,6.9-7.2v-0.9
		c0-4-2.9-7.2-6.9-7.2h-8.8c-1.6-9.8-8.1-18-16.9-21.9c1.6-2.3,2.5-5.2,2.5-8.2c0-8.1-6.5-14.6-14.6-14.6s-14.6,6.5-14.6,14.6
		c0,3,0.9,5.9,2.5,8.2c-8.8,4-15.3,12.1-16.9,22h-9.7c-4,0-7.5,3.2-7.5,7.2v0.9c0,4,3.5,7.2,7.5,7.2h2.1c2,2.3,4,5.3,5.7,9.3
		c4.4,10.5,7.2,29.6,5.4,49.2h-4.2c-4,0-7.5,3.2-7.5,7.2v0.9c0,4,3.2,7.2,7.2,7.2c-4,0-7.2,3.2-7.2,7.2v0.9c0,4,3.5,7.2,7.5,7.2h3.2
		c0.6,22.4-14,48.1-22,58c-8.1,10-2.6,20-0.6,23H97c-4,0-7.5,3.2-7.5,7.2v8.1c0,3.7,2.7,6.7,6.3,7.1v15.4H202v-15.4
		c3.6-0.4,6.3-3.5,6.3-7.1v-8.1C208.3,248.3,205.4,245.1,201.4,245.1z"/>
</g>
</svg>
