<?xml version="1.0" encoding="utf-8"?>
<!-- Generator: Adobe Illustrator 23.0.6, SVG Export Plug-In . SVG Version: 6.00 Build 0)  -->
<svg version="1.1" id="Capa_1" xmlns="http://www.w3.org/2000/svg" xmlns:xlink="http://www.w3.org/1999/xlink" x="0px" y="0px"
	 viewBox="0 0 298 298" style="enable-background:new 0 0 298 298;" xml:space="preserve">
<style type="text/css">
	.st0{fill:#FFFFFF;}
</style>
<g>
	<path class="st0" d="M210.1,236.8c3.1-5.9,9-20.5-1.5-35.2c-13.3-18.7-31.8-74.2-19.5-112h12.1V14.9h-14.4v15.3h-14.4V14.9h-16.2
		v15.3h-14.4V14.9h-15.3v15.3h-14.4V14.9H96.8v74.7h12.7c12.3,37.8-6.3,93.3-19.6,112c-10.5,14.7-4.8,29.4-1.7,35.3
		c-3.7,0.3-6.7,3.3-6.7,7.1v16.2c0,4,3.5,7.6,7.5,7.6h0.6v15.3h118.8v-15.3h1.2c4,0,6.9-3.7,6.9-7.6v-16.2
		C216.5,240.2,213.8,237.1,210.1,236.8z"/>
</g>
</svg>
